<svg xmlns="http://www.w3.org/2000/svg" width="1300" height="900" viewBox="0 0 1300 900"><rect width="1300" height="900" fill="white"/><rect x="35" y="35" width="1230" height="820" rx="18" ry="18" fill="#f7f7f7" stroke="#333" stroke-width="2"/><text x="650" y="72" text-anchor="middle" font-size="28" font-family="Arial, Helvetica, sans-serif" fill="#111" font-weight="700">LAB00 - Topologia ambiente Hyper-V</text><rect x="470" y="110" width="360" height="85" rx="12" fill="white" stroke="#333" stroke-width="2"/><text x="650" y="145" text-anchor="middle" font-size="24" font-family="Arial, Helvetica, sans-serif" fill="#111" font-weight="700">Host Windows 10/11</text><text x="650" y="175" text-anchor="middle" font-size="19" font-family="Arial, Helvetica, sans-serif" fill="#111">Hyper-V attivo - RAM host 16 GB</text><line x1="650" y1="195" x2="650" y2="245" stroke="#333" stroke-width="2"/><rect x="120" y="245" width="420" height="70" rx="12" fill="white" stroke="#333" stroke-width="2"/><text x="330" y="286" text-anchor="middle" font-size="22" font-family="Arial, Helvetica, sans-serif" fill="#111" font-weight="700">vSwitch interno vLab-ADDS</text><text x="330" y="309" text-anchor="middle" font-size="18" font-family="Arial, Helvetica, sans-serif" fill="#111">Rete 192.168.50.0/24</text><rect x="760" y="245" width="420" height="70" rx="12" fill="white" stroke="#333" stroke-width="2"/><text x="970" y="286" text-anchor="middle" font-size="22" font-family="Arial, Helvetica, sans-serif" fill="#111" font-weight="700">vSwitch interno vLab-CLUSTER</text><text x="970" y="309" text-anchor="middle" font-size="18" font-family="Arial, Helvetica, sans-serif" fill="#111">Rete 10.10.10.0/24</text><line x1="540" y1="280" x2="760" y2="280" stroke="#333" stroke-dasharray="8,6" stroke-width="2"/><rect x="90" y="380" width="180" height="88" rx="12" fill="white" stroke="#333" stroke-width="2"/><text x="180.0" y="410" text-anchor="middle" font-size="22" font-family="Arial, Helvetica, sans-serif" fill="#111" font-weight="700">DC1</text><text x="180.0" y="435" text-anchor="middle" font-size="16" font-family="Arial, Helvetica, sans-serif" fill="#111">AD DS + DNS</text><text x="180.0" y="456" text-anchor="middle" font-size="16" font-family="Arial, Helvetica, sans-serif" fill="#111">192.168.50.10</text><rect x="300" y="380" width="180" height="88" rx="12" fill="white" stroke="#333" stroke-width="2"/><text x="390.0" y="410" text-anchor="middle" font-size="22" font-family="Arial, Helvetica, sans-serif" fill="#111" font-weight="700">SRV1</text><text x="390.0" y="435" text-anchor="middle" font-size="16" font-family="Arial, Helvetica, sans-serif" fill="#111">File / DHCP / WSUS</text><text x="390.0" y="456" text-anchor="middle" font-size="16" font-family="Arial, Helvetica, sans-serif" fill="#111">192.168.50.20</text><rect x="510" y="380" width="180" height="88" rx="12" fill="white" stroke="#333" stroke-width="2"/><text x="600.0" y="410" text-anchor="middle" font-size="22" font-family="Arial, Helvetica, sans-serif" fill="#111" font-weight="700">CLIENT1</text><text x="600.0" y="435" text-anchor="middle" font-size="16" font-family="Arial, Helvetica, sans-serif" fill="#111">Windows 11 client</text><text x="600.0" y="456" text-anchor="middle" font-size="16" font-family="Arial, Helvetica, sans-serif" fill="#111">192.168.50.100</text><rect x="825" y="380" width="180" height="88" rx="12" fill="white" stroke="#333" stroke-width="2"/><text x="915.0" y="410" text-anchor="middle" font-size="22" font-family="Arial, Helvetica, sans-serif" fill="#111" font-weight="700">CLU1</text><text x="915.0" y="435" text-anchor="middle" font-size="16" font-family="Arial, Helvetica, sans-serif" fill="#111">Nodo cluster</text><text x="915.0" y="456" text-anchor="middle" font-size="16" font-family="Arial, Helvetica, sans-serif" fill="#111">192.168.50.31</text><rect x="1040" y="380" width="180" height="88" rx="12" fill="white" stroke="#333" stroke-width="2"/><text x="1130.0" y="410" text-anchor="middle" font-size="22" font-family="Arial, Helvetica, sans-serif" fill="#111" font-weight="700">CLU2</text><text x="1130.0" y="435" text-anchor="middle" font-size="16" font-family="Arial, Helvetica, sans-serif" fill="#111">Nodo cluster</text><text x="1130.0" y="456" text-anchor="middle" font-size="16" font-family="Arial, Helvetica, sans-serif" fill="#111">192.168.50.32</text><line x1="330" y1="315" x2="180" y2="380" stroke="#333" stroke-width="2"/><line x1="330" y1="315" x2="390" y2="380" stroke="#333" stroke-width="2"/><line x1="330" y1="315" x2="600" y2="380" stroke="#333" stroke-width="2"/><line x1="970" y1="315" x2="915" y2="380" stroke="#333" stroke-width="2"/><line x1="970" y1="315" x2="1130" y2="380" stroke="#333" stroke-width="2"/><text x="915" y="490" text-anchor="middle" font-size="15" font-family="Arial, Helvetica, sans-serif" fill="#111">Seconda NIC: 10.10.10.31</text><text x="1130" y="490" text-anchor="middle" font-size="15" font-family="Arial, Helvetica, sans-serif" fill="#111">Seconda NIC: 10.10.10.32</text><rect x="390" y="600" width="520" height="140" rx="14" fill="#ececec" stroke="#333" stroke-width="2"/><text x="650" y="640" text-anchor="middle" font-size="24" font-family="Arial, Helvetica, sans-serif" fill="#111" font-weight="700">Storage condiviso per il cluster</text><rect x="455" y="665" width="180" height="48" rx="10" fill="white" stroke="#333" stroke-width="2"/><text x="545" y="696" text-anchor="middle" font-size="20" font-family="Arial, Helvetica, sans-serif" fill="#111">ClusterData.vhds</text><rect x="665" y="665" width="180" height="48" rx="10" fill="white" stroke="#333" stroke-width="2"/><text x="755" y="696" text-anchor="middle" font-size="20" font-family="Arial, Helvetica, sans-serif" fill="#111">ClusterQuorum.vhds</text><line x1="915" y1="468" x2="590" y2="665" stroke="#333" stroke-width="2"/><line x1="1130" y1="468" x2="710" y2="665" stroke="#333" stroke-width="2"/><text x="650" y="785" text-anchor="middle" font-size="18" font-family="Arial, Helvetica, sans-serif" fill="#111">I file .vhds saranno collegati a entrambi i nodi CLU1 e CLU2</text></svg>