<svg xmlns="http://www.w3.org/2000/svg" width="1100" height="620" viewBox="0 0 1100 620"><rect width="1100" height="620" fill="white"/><text x="550.0" y="48" text-anchor="middle" font-size="28" font-family="Arial, Helvetica, sans-serif" fill="#111" font-weight="700">Profili operativi delle VM</text><rect x="70" y="90" width="440" height="470" rx="16" fill="#f7f7f7" stroke="#333" stroke-width="2"/><text x="290" y="128" text-anchor="middle" font-size="24" font-family="Arial, Helvetica, sans-serif" fill="#111" font-weight="700">Profilo normale AD DS</text><text x="290" y="154" text-anchor="middle" font-size="16" font-family="Arial, Helvetica, sans-serif" fill="#111">Usato per AD, DNS, GPO, File Server, DHCP, WSUS</text><text x="185" y="200" text-anchor="middle" font-size="18" font-family="Arial, Helvetica, sans-serif" fill="#111" font-weight="700">VM accese</text><text x="400" y="200" text-anchor="middle" font-size="18" font-family="Arial, Helvetica, sans-serif" fill="#111" font-weight="700">VM spente</text><rect x="105" y="230" width="160" height="48" rx="10" fill="white" stroke="#333" stroke-width="2"/><text x="185" y="261" text-anchor="middle" font-size="22" font-family="Arial, Helvetica, sans-serif" fill="#111">DC1</text><circle cx="280" cy="254" r="8" fill="white" stroke="#333" stroke-width="2"/><text x="300" y="259" font-size="16" font-family="Arial, Helvetica, sans-serif" fill="#111">attiva</text><rect x="105" y="305" width="160" height="48" rx="10" fill="white" stroke="#333" stroke-width="2"/><text x="185" y="336" text-anchor="middle" font-size="22" font-family="Arial, Helvetica, sans-serif" fill="#111">SRV1</text><circle cx="280" cy="329" r="8" fill="white" stroke="#333" stroke-width="2"/><text x="300" y="334" font-size="16" font-family="Arial, Helvetica, sans-serif" fill="#111">attiva</text><rect x="105" y="380" width="160" height="48" rx="10" fill="white" stroke="#333" stroke-width="2"/><text x="185" y="411" text-anchor="middle" font-size="22" font-family="Arial, Helvetica, sans-serif" fill="#111">CLIENT1</text><circle cx="280" cy="404" r="8" fill="white" stroke="#333" stroke-width="2"/><text x="300" y="409" font-size="16" font-family="Arial, Helvetica, sans-serif" fill="#111">attiva</text><rect x="320" y="230" width="160" height="48" rx="10" fill="white" stroke="#333" stroke-width="2"/><text x="400" y="261" text-anchor="middle" font-size="22" font-family="Arial, Helvetica, sans-serif" fill="#111">CLU1</text><line x1="498" y1="242" x2="522" y2="266" stroke="#333" stroke-width="2"/><line x1="522" y1="242" x2="498" y2="266" stroke="#333" stroke-width="2"/><text x="440" y="297" text-anchor="middle" font-size="14" font-family="Arial, Helvetica, sans-serif" fill="#111">spegnere quando non serve</text><rect x="320" y="305" width="160" height="48" rx="10" fill="white" stroke="#333" stroke-width="2"/><text x="400" y="336" text-anchor="middle" font-size="22" font-family="Arial, Helvetica, sans-serif" fill="#111">CLU2</text><line x1="498" y1="317" x2="522" y2="341" stroke="#333" stroke-width="2"/><line x1="522" y1="317" x2="498" y2="341" stroke="#333" stroke-width="2"/><text x="440" y="372" text-anchor="middle" font-size="14" font-family="Arial, Helvetica, sans-serif" fill="#111">spegnere quando non serve</text><rect x="590" y="90" width="440" height="470" rx="16" fill="#f7f7f7" stroke="#333" stroke-width="2"/><text x="810" y="128" text-anchor="middle" font-size="24" font-family="Arial, Helvetica, sans-serif" fill="#111" font-weight="700">Profilo cluster</text><text x="810" y="154" text-anchor="middle" font-size="16" font-family="Arial, Helvetica, sans-serif" fill="#111">Usato per Failover Cluster</text><text x="705" y="200" text-anchor="middle" font-size="18" font-family="Arial, Helvetica, sans-serif" fill="#111" font-weight="700">VM accese</text><text x="920" y="200" text-anchor="middle" font-size="18" font-family="Arial, Helvetica, sans-serif" fill="#111" font-weight="700">VM spente</text><rect x="625" y="230" width="160" height="48" rx="10" fill="white" stroke="#333" stroke-width="2"/><text x="705" y="261" text-anchor="middle" font-size="22" font-family="Arial, Helvetica, sans-serif" fill="#111">DC1</text><circle cx="800" cy="254" r="8" fill="white" stroke="#333" stroke-width="2"/><text x="820" y="259" font-size="16" font-family="Arial, Helvetica, sans-serif" fill="#111">attiva</text><rect x="625" y="305" width="160" height="48" rx="10" fill="white" stroke="#333" stroke-width="2"/><text x="705" y="336" text-anchor="middle" font-size="22" font-family="Arial, Helvetica, sans-serif" fill="#111">CLU1</text><circle cx="800" cy="329" r="8" fill="white" stroke="#333" stroke-width="2"/><text x="820" y="334" font-size="16" font-family="Arial, Helvetica, sans-serif" fill="#111">attiva</text><rect x="625" y="380" width="160" height="48" rx="10" fill="white" stroke="#333" stroke-width="2"/><text x="705" y="411" text-anchor="middle" font-size="22" font-family="Arial, Helvetica, sans-serif" fill="#111">CLU2</text><circle cx="800" cy="404" r="8" fill="white" stroke="#333" stroke-width="2"/><text x="820" y="409" font-size="16" font-family="Arial, Helvetica, sans-serif" fill="#111">attiva</text><rect x="840" y="230" width="160" height="48" rx="10" fill="white" stroke="#333" stroke-width="2"/><text x="920" y="261" text-anchor="middle" font-size="22" font-family="Arial, Helvetica, sans-serif" fill="#111">SRV1</text><line x1="1018" y1="242" x2="1042" y2="266" stroke="#333" stroke-width="2"/><line x1="1042" y1="242" x2="1018" y2="266" stroke="#333" stroke-width="2"/><text x="960" y="297" text-anchor="middle" font-size="14" font-family="Arial, Helvetica, sans-serif" fill="#111">spegnere quando non serve</text><rect x="840" y="305" width="160" height="48" rx="10" fill="white" stroke="#333" stroke-width="2"/><text x="920" y="336" text-anchor="middle" font-size="22" font-family="Arial, Helvetica, sans-serif" fill="#111">CLIENT1</text><line x1="1018" y1="317" x2="1042" y2="341" stroke="#333" stroke-width="2"/><line x1="1042" y1="317" x2="1018" y2="341" stroke="#333" stroke-width="2"/><text x="960" y="372" text-anchor="middle" font-size="14" font-family="Arial, Helvetica, sans-serif" fill="#111">spegnere quando non serve</text></svg>
